<?xml version="1.0" encoding="utf-8"?>
<svg xmlns="http://www.w3.org/2000/svg" viewBox="0 0 64 64" width="512" height="512">
  <path d="M32.005859 3C16.014859 3 3.0058594 16.01 3.0058594 32C3.0058594 47.99 16.014859 61 32.005859 61C47.996859 61 61.005859 47.99 61.005859 32C61.005859 16.01 47.996859 3 32.005859 3 z M 32.005859 5C46.893859 5 59.005859 17.112 59.005859 32C59.005859 46.888 46.893859 59 32.005859 59C17.117859 59 5.0058594 46.888 5.0058594 32C5.0058594 17.112 17.117859 5 32.005859 5 z M 32.78125 8.1445312C32.24425 8.1445313 31.80025 8.5713281 31.78125 9.1113281C31.76225 9.6633281 32.194094 10.125531 32.746094 10.144531C40.889094 10.424531 48.180484 15.159906 51.771484 22.503906C51.944484 22.858906 52.299922 23.064453 52.669922 23.064453C52.816922 23.064453 52.966375 23.033844 53.109375 22.964844C53.605375 22.722844 53.811359 22.122953 53.568359 21.626953C49.651359 13.617953 41.700406 8.4514844 32.816406 8.1464844C32.804406 8.1454844 32.79325 8.1445312 32.78125 8.1445312 z M 32.005859 14C22.080859 14 14.005859 22.075 14.005859 32C14.005859 41.925 22.080859 50 32.005859 50C41.931859 50 50.005859 41.925 50.005859 32C50.005859 22.075 41.930859 14 32.005859 14 z M 32.005859 16C40.828859 16 48.005859 23.178 48.005859 32C48.005859 40.822 40.827859 48 32.005859 48C23.183859 48 16.005859 40.822 16.005859 32C16.005859 23.178 23.183859 16 32.005859 16 z M 54.455078 27.080078C53.911078 27.178078 53.551437 27.698187 53.648438 28.242188C53.921438 29.764188 54.031516 31.326719 53.978516 32.886719C53.959516 33.438719 54.391359 33.900922 54.943359 33.919922C54.955359 33.920922 54.967516 33.919922 54.978516 33.919922C55.515516 33.919922 55.959516 33.493125 55.978516 32.953125C56.036516 31.253125 55.915188 29.549672 55.617188 27.888672C55.518188 27.344672 54.995078 26.978078 54.455078 27.080078 z M 10.167969 34.630859L8.1933594 34.958984C7.6483594 35.048984 7.2800937 35.564375 7.3710938 36.109375C7.4520937 36.598375 7.8774219 36.945312 8.3574219 36.945312C8.4114219 36.945312 8.4654844 36.941641 8.5214844 36.931641L10.494141 36.603516C11.039141 36.513516 11.407406 35.998125 11.316406 35.453125C11.226406 34.908125 10.716969 34.532859 10.167969 34.630859 z M 11.554688 38.986328C11.424828 38.983 11.292813 39.005141 11.164062 39.056641L9.3027344 39.785156C8.7887344 39.986156 8.5353281 40.566078 8.7363281 41.080078C8.8913281 41.475078 9.2679687 41.716797 9.6679688 41.716797C9.7899688 41.716797 9.91225 41.694484 10.03125 41.646484L11.894531 40.917969C12.408531 40.716969 12.661938 40.137047 12.460938 39.623047C12.309438 39.238297 11.944266 38.996313 11.554688 38.986328 z M 13.423828 43.035156C13.296 43.058625 13.172141 43.107344 13.056641 43.183594L11.382812 44.279297C10.920813 44.582297 10.792703 45.202062 11.095703 45.664062C11.286703 45.957062 11.605641 46.115234 11.931641 46.115234C12.119641 46.115234 12.310469 46.062172 12.480469 45.951172L14.152344 44.855469C14.614344 44.552469 14.744406 43.932703 14.441406 43.470703C14.214156 43.123453 13.807312 42.96475 13.423828 43.035156 z M 16.457031 46.548828C16.201281 46.548828 15.9455 46.646297 15.75 46.841797L14.335938 48.255859C13.944937 48.646859 13.944937 49.278922 14.335938 49.669922C14.530938 49.864922 14.786969 49.962891 15.042969 49.962891C15.298969 49.962891 15.555 49.864922 15.75 49.669922L17.164062 48.255859C17.555063 47.864859 17.555062 47.232797 17.164062 46.841797C16.968563 46.646297 16.712781 46.548828 16.457031 46.548828 z M 20.164062 49.417969C19.781 49.348172 19.375688 49.507766 19.148438 49.853516L18.052734 51.527344C17.750734 51.989344 17.879797 52.608156 18.341797 52.910156C18.510797 53.021156 18.700672 53.074219 18.888672 53.074219C19.213672 53.074219 19.534562 52.916047 19.726562 52.623047L20.822266 50.949219C21.124266 50.487219 20.995203 49.868406 20.533203 49.566406C20.417953 49.490406 20.29175 49.441234 20.164062 49.417969 z M 23.992188 51.476562C23.602234 51.487016 23.238641 51.725828 23.087891 52.111328L22.359375 53.974609C22.157375 54.488609 22.411781 55.067531 22.925781 55.269531C23.045781 55.316531 23.168063 55.337891 23.289062 55.337891C23.689062 55.337891 24.065703 55.097125 24.220703 54.703125L24.949219 52.841797C25.151219 52.327797 24.898766 51.746922 24.384766 51.544922C24.255766 51.494172 24.122172 51.473078 23.992188 51.476562 z M 28.552734 52.689453C28.003734 52.591453 27.492344 52.966719 27.402344 53.511719L27.074219 55.484375C26.983219 56.029375 27.351484 56.543766 27.896484 56.634766C27.952484 56.644766 28.0085 56.648438 28.0625 56.648438C28.5425 56.648437 28.965875 56.3025 29.046875 55.8125L29.375 53.839844C29.466 53.294844 29.097734 52.780453 28.552734 52.689453 z" fill="hsla(0, 0.00%, 0.00%, 0.23)" />
</svg>