<?xml version="1.0" encoding="utf-8"?>
<svg xmlns="http://www.w3.org/2000/svg" viewBox="-5 -5 75 75" width="512" height="512">
  <path d="M32 4C16.559707 4 4 16.559719 4 32C4 47.440281 16.559707 60 32 60C47.440293 60 60 47.440281 60 32C60 16.559719 47.440293 4 32 4 z M 32 8C45.278534 8 56 18.721475 56 32C56 39.548841 52.531668 46.268147 47.101562 50.664062C46.050815 48.684908 44.548333 46.94625 42.720703 45.560547C40.990703 47.340547 37.49 50 32 50C26.53 50 23.009297 47.330781 21.279297 45.550781C19.451667 46.943975 17.949185 48.684437 16.898438 50.664062C11.468332 46.268147 8 39.548841 8 32C8 18.721475 18.721466 8 32 8 z M 21.294922 19C21.294922 19 18 20.647219 18 33.824219C18 40.893219 24.268 47 32 47C39.732 47 46 40.893219 46 33.824219C46 20.647219 42.705078 19 42.705078 19C39.411078 20.647 37.384766 24.384766 37.384766 24.384766L26.615234 24.384766C26.615234 24.384766 24.588922 20.647 21.294922 19 z M 26 31C27.657 31 29 32.343 29 34C29 35.657 27.657 37 26 37C24.343 37 23 35.657 23 34C23 32.343 24.343 31 26 31 z M 38 31C39.657 31 41 32.343 41 34C41 35.657 39.657 37 38 37C36.343 37 35 35.657 35 34C35 32.343 36.343 31 38 31 z" fill="#7EC9AF" />
</svg>