<?xml version="1.0" encoding="utf-8"?>
<svg xmlns="http://www.w3.org/2000/svg" viewBox="0 0 50 50" width="500" height="500">
  <path d="M23.375 0.0625C23.046875 0.0507813 22.722656 0.125 22.46875 0.21875C21.960938 0.40625 21.574219 0.671875 21.28125 0.90625C21.28125 0.90625 18.734375 2.886719 17.84375 6.34375L19.78125 6.84375C20.488281 4.101563 22.53125 2.5 22.53125 2.5C22.53125 2.488281 22.53125 2.480469 22.53125 2.46875C22.738281 2.304688 22.988281 2.15625 23.15625 2.09375C23.238281 2.0625 23.273438 2.066406 23.28125 2.0625C23.753906 2.433594 24.253906 2.777344 24.71875 3.0625C23.523438 3.738281 22.359375 4.753906 21.03125 7.21875L22.78125 8.1875C24.128906 5.6875 24.855469 5.132813 25.9375 4.59375C25.957031 4.585938 25.980469 4.574219 26 4.5625C26.574219 4.234375 27.039063 3.511719 26.9375 2.84375C26.835938 2.175781 26.417969 1.769531 25.96875 1.46875C25.949219 1.457031 25.925781 1.445313 25.90625 1.4375C25.441406 1.15625 24.886719 0.765625 24.4375 0.40625C24.40625 0.394531 24.375 0.382813 24.34375 0.375C24.027344 0.164063 23.703125 0.0742188 23.375 0.0625 Z M 31.0625 1.53125C30.898438 1.53125 30.722656 1.554688 30.5625 1.59375C29.921875 1.742188 29.382813 2.144531 28.9375 2.65625C28.1875 3.515625 26.671875 5.449219 24.25 9.28125L25.9375 10.34375C28.316406 6.574219 29.789063 4.710938 30.4375 3.96875C30.691406 3.679688 30.921875 3.554688 31.03125 3.53125C31.125 3.507813 31.175781 3.523438 31.28125 3.59375C31.292969 3.601563 31.300781 3.617188 31.3125 3.625C31.835938 4.042969 32.523438 4.503906 33.125 4.90625C33.183594 4.949219 33.128906 4.910156 33.15625 4.9375C33.144531 4.949219 33.136719 4.957031 33.125 4.96875C31.652344 6.34375 29.449219 8.207031 27.375 11.21875L29.03125 12.375C30.941406 9.601563 32.914063 7.890625 34.4375 6.46875C34.449219 6.460938 34.457031 6.445313 34.46875 6.4375C34.925781 6.035156 35.347656 5.46875 35.28125 4.78125C35.214844 4.078125 34.742188 3.609375 34.28125 3.28125C34.269531 3.28125 34.261719 3.28125 34.25 3.28125C33.671875 2.894531 32.992188 2.402344 32.53125 2.03125C32.511719 2.019531 32.488281 2.007813 32.46875 2C32.058594 1.707031 31.558594 1.53125 31.0625 1.53125 Z M 39.9375 4.6875C39.242188 4.765625 38.636719 5.078125 38.09375 5.5C38.09375 5.5 34.089844 8.585938 30.59375 13.625L32.21875 14.78125C35.523438 10.019531 39.3125 7.09375 39.3125 7.09375C39.671875 6.816406 39.976563 6.675781 40.15625 6.65625C40.3125 6.636719 40.425781 6.683594 40.59375 6.8125C40.617188 6.832031 40.628906 6.816406 40.65625 6.84375L42.5 8.71875C42.601563 8.820313 42.652344 8.910156 42.6875 8.96875C42.660156 8.976563 42.679688 8.949219 42.625 8.96875C42.613281 8.980469 42.605469 8.988281 42.59375 9C40.320313 10.023438 35.9375 13.050781 33.5625 15.75L35.0625 17.0625C37.078125 14.773438 41.628906 11.640625 43.375 10.84375C43.382813 10.839844 43.398438 10.816406 43.40625 10.8125C44.113281 10.515625 44.722656 9.839844 44.75 9.09375C44.777344 8.335938 44.375 7.75 43.90625 7.28125L42 5.40625C41.992188 5.386719 41.980469 5.363281 41.96875 5.34375C41.394531 4.839844 40.632813 4.609375 39.9375 4.6875 Z M 17.34375 7.90625C16.214844 7.957031 15.101563 8.308594 14.03125 8.875C11.894531 10.007813 9.878906 11.9375 8.09375 14.15625C6.308594 16.375 4.742188 18.890625 3.625 21.21875C2.507813 23.546875 1.8125 25.640625 1.8125 27.3125C1.8125 29.171875 2.648438 31.292969 3.9375 33.625C5.226563 35.957031 6.996094 38.457031 8.96875 40.75C10.941406 43.042969 13.105469 45.132813 15.25 46.6875C17.292969 48.167969 19.296875 49.1875 21.21875 49.28125C22.816406 49.757813 24.601563 50 26.5 50C31.265625 50 34.722656 49.566406 37.15625 48.53125C39.589844 47.496094 41 45.613281 41 43.3125C41 39.285156 38.613281 36.289063 37.15625 30.75C36.421875 28 36.863281 25.121094 36.53125 22.625C36.433594 21.90625 36.261719 21.203125 35.9375 20.5625C35.933594 20.214844 35.792969 19.917969 35.65625 19.6875C35.457031 19.355469 35.175781 19.046875 34.84375 18.71875C34.179688 18.066406 33.242188 17.3125 31.96875 16.375C29.417969 14.496094 25.613281 11.953125 20.65625 8.75C20.644531 8.75 20.636719 8.75 20.625 8.75C19.59375 8.09375 18.472656 7.855469 17.34375 7.90625 Z M 17.40625 9.84375C18.160156 9.800781 18.867188 9.996094 19.5625 10.4375C24.507813 13.632813 28.304688 16.148438 30.78125 17.96875C30.816406 17.992188 30.839844 18.007813 30.875 18.03125C30.714844 18.027344 30.574219 18 30.40625 18C25.964844 18 22.015625 21.984375 19.03125 26.5C16.046875 31.015625 14 36.109375 14 39.5C14 41.070313 14.289063 42.476563 14.78125 43.71875C13.320313 42.476563 11.835938 41.023438 10.46875 39.4375C8.578125 37.242188 6.890625 34.835938 5.6875 32.65625C4.484375 30.476563 3.8125 28.503906 3.8125 27.3125C3.8125 26.285156 4.390625 24.246094 5.4375 22.0625C6.484375 19.878906 7.980469 17.488281 9.65625 15.40625C11.332031 13.324219 13.214844 11.554688 14.96875 10.625C15.84375 10.160156 16.652344 9.886719 17.40625 9.84375 Z M 30.40625 20C32.175781 20 33.128906 20.335938 33.65625 20.78125C33.789063 20.890625 33.902344 21.015625 34 21.15625C34.011719 21.167969 34.019531 21.175781 34.03125 21.1875C34.3125 21.601563 34.464844 22.144531 34.5625 22.875C34.828125 24.878906 34.351563 28 35.21875 31.25C36.761719 37.109375 39 40.136719 39 43.3125C39 44.910156 38.34375 45.847656 36.375 46.6875C34.40625 47.527344 31.136719 48 26.5 48C24.816406 48 23.304688 47.785156 21.96875 47.40625C21.871094 47.359375 21.765625 47.328125 21.65625 47.3125C20.582031 46.972656 19.621094 46.53125 18.84375 45.9375C17.046875 44.570313 16 42.558594 16 39.5C16 36.992188 17.871094 31.855469 20.6875 27.59375C23.503906 23.332031 27.246094 20 30.40625 20 Z M 28.71875 26.375C27.679688 26.277344 26.21875 27.113281 25.09375 28.6875C23.59375 30.789063 22.804688 34.394531 24.40625 34.59375C25.207031 34.695313 25.195313 32.585938 26.59375 30.1875C28.195313 27.585938 30.292969 27.613281 29.59375 26.8125C29.367188 26.5625 29.066406 26.40625 28.71875 26.375 Z M 32.6875 34.09375C31.886719 34.394531 32.886719 40.40625 32.1875 41.40625C30.886719 43.40625 26 43.3125 26 44.3125C26 45.210938 33.707031 44.707031 34.90625 43.90625C36.707031 42.605469 33.386719 33.894531 32.6875 34.09375Z" fill="#CE908D" />
</svg>